<?xml version="1.0" encoding="utf-8"?>
<!-- Generator: Adobe Illustrator 16.0.0, SVG Export Plug-In . SVG Version: 6.00 Build 0)  -->
<!DOCTYPE svg PUBLIC "-//W3C//DTD SVG 1.1//EN" "http://www.w3.org/Graphics/SVG/1.1/DTD/svg11.dtd">
<svg version="1.1" id="Ebene_2" xmlns="http://www.w3.org/2000/svg" xmlns:xlink="http://www.w3.org/1999/xlink" x="0px" y="0px"
	 width="57.6px" height="57.6px" viewBox="0 0 57.6 57.6" enable-background="new 0 0 57.6 57.6" xml:space="preserve">
<filter  id="AI_GaußscherWeichzeichner_1.5">
	<feGaussianBlur  stdDeviation="1.5"></feGaussianBlur>
</filter>
<g opacity="0.75" filter="url(#AI_GaußscherWeichzeichner_1.5)">
	<polygon points="10.752,50.496 22.736,50.496 22.736,29.965 34.791,29.965 34.791,50.496 46.791,50.496 46.791,31.918 
		48.229,33.105 52.785,27.958 43.194,19.458 43.194,8.583 36.166,8.583 36.166,13.895 28.924,7.208 4.799,27.958 9.58,33.105 
		10.752,31.918 	"/>
</g>
<linearGradient id="SVGID_1_" gradientUnits="userSpaceOnUse" x1="27.2642" y1="49.168" x2="27.2642" y2="5.8872">
	<stop  offset="0" style="stop-color:#CDCDCD"/>
	<stop  offset="1" style="stop-color:#F1F1F1"/>
</linearGradient>
<polygon fill="url(#SVGID_1_)" points="9.22,49.168 21.204,49.168 21.204,28.637 33.267,28.637 33.267,49.168 45.267,49.168 
	45.267,30.59 46.704,31.777 51.261,26.637 41.67,18.137 41.67,7.262 34.642,7.262 34.642,12.574 27.392,5.887 3.267,26.637 
	8.048,31.777 9.22,30.59 "/>
</svg>
