<?xml version="1.0" encoding="utf-8"?>
<!-- Generator: Adobe Illustrator 13.0.0, SVG Export Plug-In . SVG Version: 6.00 Build 14948)  -->
<!DOCTYPE svg PUBLIC "-//W3C//DTD SVG 1.1//EN" "http://www.w3.org/Graphics/SVG/1.1/DTD/svg11.dtd">
<svg version="1.1" id="svg2" xmlns:svg="http://www.w3.org/2000/svg"
	 xmlns="http://www.w3.org/2000/svg" xmlns:xlink="http://www.w3.org/1999/xlink" x="0px" y="0px" width="57.6px" height="57.6px"
	 viewBox="348 307 57.6 57.6" enable-background="new 348 307 57.6 57.6" xml:space="preserve">
<filter  id="AI_GaußscherWeichzeichner_1.5">
	<feGaussianBlur  stdDeviation="1.5"></feGaussianBlur>
</filter>
<g opacity="0.75" filter="url(#AI_GaußscherWeichzeichner_1.5)">
	<path d="M403.429,344.818c0.021-4.872,0.265-0.961-2.885-8.433c-2.516-5.833-0.307-4.249-11.256-4.47
		c-1.123,0.018-2.122,0.022-3.015,0.019c-0.33-0.517-0.944-1.461-2.083-4.162c-2.131-4.941-0.261-3.599-9.534-3.787
		c-0.99,0.016-1.869,0.019-2.647,0.016c-0.206-0.418-0.718-0.909-1.969-3.876c-1.822-4.228-0.222-3.079-8.157-3.24
		c-8.916,0.146-7.169-0.927-8.893,3.057c-2.382,5.859-2.167,2.458-2.114,6.411c0.084,3.745-1.325,2.734,10.593,2.895
		c0.744-0.008,1.436-0.012,2.08-0.013c-2.023,4.49-1.813,1.635-1.755,5.814c0.098,4.376-1.548,3.195,12.38,3.383
		c0.653-0.008,1.273-0.012,1.861-0.014c-2.238,4.861-1.999,1.722-1.933,6.558c0.116,5.167-1.828,3.772,14.616,3.995
		C405.289,348.792,403.314,350.166,403.429,344.818z M353.29,322.539l1.631-3.768c0.305-0.669,0.207-0.571,0.919-0.575l11.407-0.001
		c0.618,0.002,0.527-0.038,0.782,0.552l1.622,3.747L353.29,322.539z M364.614,330.592l1.906-4.403
		c0.356-0.784,0.242-0.668,1.074-0.672l13.331-0.001c0.722,0.003,0.615-0.044,0.913,0.645l1.896,4.379L364.614,330.592z
		 M377.432,339.714l2.251-5.199c0.42-0.923,0.285-0.787,1.269-0.793l15.737-0.001c0.852,0.003,0.728-0.052,1.078,0.761l2.238,5.168
		L377.432,339.714z"/>
	<path d="M375.822,349.568l4.21-0.01c-0.013,5.286,0.425,4.991-1.871,5.025C375.427,354.573,375.86,354.849,375.822,349.568z"/>
	<path d="M397.5,349.606h4.217c-0.028,5.293,0.357,4.932-2.029,4.945C397.221,354.519,397.535,354.909,397.5,349.606z"/>
	<path d="M363.25,338.938l3.565-0.007c-0.01,4.476,0.36,4.228-1.584,4.255C362.916,343.178,363.282,343.411,363.25,338.938z"/>
	<path d="M352.123,329.682l3.051-0.007c-0.009,3.831,0.308,3.617-1.356,3.642C351.836,333.309,352.15,333.509,352.123,329.682z"/>
</g>
<linearGradient id="SVGID_1_" gradientUnits="userSpaceOnUse" x1="375.6172" y1="353.2988" x2="375.6172" y2="315.5723">
	<stop  offset="0" style="stop-color:#CDCDCD"/>
	<stop  offset="1" style="stop-color:#F1F1F1"/>
</linearGradient>
<path fill="url(#SVGID_1_)" d="M401.897,343.533c0.021-4.872,0.265-0.961-2.885-8.433c-2.516-5.833-0.307-4.249-11.256-4.47
	c-1.123,0.018-2.122,0.022-3.015,0.019c-0.33-0.517-0.944-1.461-2.083-4.162c-2.131-4.941-0.261-3.599-9.534-3.787
	c-0.99,0.016-1.869,0.019-2.647,0.016c-0.206-0.418-0.718-0.909-1.969-3.876c-1.822-4.228-0.222-3.079-8.157-3.24
	c-8.916,0.146-7.169-0.927-8.893,3.057c-2.382,5.859-2.167,2.458-2.114,6.411c0.084,3.745-1.325,2.734,10.593,2.895
	c0.744-0.008,1.436-0.012,2.08-0.013c-2.023,4.49-1.813,1.635-1.755,5.814c0.098,4.377-1.548,3.195,12.38,3.384
	c0.653-0.008,1.273-0.012,1.861-0.014c-2.238,4.861-1.999,1.722-1.933,6.558c0.116,5.167-1.828,3.772,14.616,3.995
	C403.756,347.507,401.782,348.881,401.897,343.533z M351.757,321.253l1.631-3.768c0.305-0.669,0.207-0.571,0.919-0.575l11.407-0.001
	c0.618,0.002,0.527-0.038,0.782,0.552l1.622,3.747L351.757,321.253z M363.082,329.307l1.906-4.403
	c0.356-0.784,0.242-0.668,1.074-0.672l13.331-0.001c0.722,0.003,0.615-0.044,0.913,0.645l1.896,4.379L363.082,329.307z
	 M375.9,338.429l2.251-5.199c0.42-0.923,0.285-0.787,1.269-0.793l15.737-0.001c0.852,0.003,0.728-0.052,1.078,0.761l2.238,5.169
	L375.9,338.429z M374.29,348.283l4.21-0.01c-0.013,5.286,0.425,4.991-1.871,5.025C373.895,353.288,374.328,353.563,374.29,348.283z
	 M395.968,348.321h4.217c-0.028,5.293,0.357,4.932-2.029,4.945C395.689,353.233,396.002,353.624,395.968,348.321z M361.718,337.652
	l3.565-0.007c-0.01,4.476,0.36,4.228-1.584,4.255C361.384,341.893,361.75,342.126,361.718,337.652z M350.59,328.396l3.051-0.007
	c-0.009,3.831,0.308,3.617-1.356,3.642C350.304,332.023,350.618,332.224,350.59,328.396z"/>
</svg>
