<?xml version="1.0" encoding="utf-8"?>
<!-- Generator: Adobe Illustrator 16.0.0, SVG Export Plug-In . SVG Version: 6.00 Build 0)  -->
<!DOCTYPE svg PUBLIC "-//W3C//DTD SVG 1.1//EN" "http://www.w3.org/Graphics/SVG/1.1/DTD/svg11.dtd">
<svg version="1.1" id="Ebene_1" xmlns="http://www.w3.org/2000/svg" xmlns:xlink="http://www.w3.org/1999/xlink" x="0px" y="0px"
	 width="57.6px" height="57.6px" viewBox="0 0 57.6 57.6" enable-background="new 0 0 57.6 57.6" xml:space="preserve">
<filter  id="AI_GaußscherWeichzeichner_1.5">
	<feGaussianBlur  stdDeviation="1.5"></feGaussianBlur>
</filter>
<path filter="url(#AI_GaußscherWeichzeichner_1.5)" d="M50.252,25.505c0,10.723-19.417,28.577-19.417,28.577
	S11.418,36.229,11.418,25.505c0-10.724,8.693-19.417,19.417-19.417C41.56,6.088,50.252,14.782,50.252,25.505z M30.835,18.005
	c-4.142,0-7.5,3.358-7.5,7.5s3.358,7.5,7.5,7.5c4.143,0,7.5-3.357,7.5-7.5S34.978,18.005,30.835,18.005z"/>
<linearGradient id="SVGID_1_" gradientUnits="userSpaceOnUse" x1="29.3032" y1="52.7969" x2="29.3032" y2="4.8032">
	<stop  offset="0" style="stop-color:#6A7A18"/>
	<stop  offset="1" style="stop-color:#9CB703"/>
</linearGradient>
<path fill="url(#SVGID_1_)" d="M48.72,24.22c0,10.724-19.417,28.577-19.417,28.577S9.886,34.943,9.886,24.22
	S18.579,4.803,29.303,4.803C40.027,4.803,48.72,13.496,48.72,24.22z M29.303,16.72c-4.142,0-7.5,3.358-7.5,7.5s3.358,7.5,7.5,7.5
	c4.143,0,7.5-3.358,7.5-7.5S33.445,16.72,29.303,16.72z"/>
</svg>
