<?xml version="1.0" encoding="utf-8"?>
<!-- Generator: Adobe Illustrator 16.0.0, SVG Export Plug-In . SVG Version: 6.00 Build 0)  -->
<!DOCTYPE svg PUBLIC "-//W3C//DTD SVG 1.1//EN" "http://www.w3.org/Graphics/SVG/1.1/DTD/svg11.dtd">
<svg version="1.1" id="Ebene_1" xmlns="http://www.w3.org/2000/svg" xmlns:xlink="http://www.w3.org/1999/xlink" x="0px" y="0px"
	 width="57.6px" height="57.6px" viewBox="0 0 57.6 57.6" enable-background="new 0 0 57.6 57.6" xml:space="preserve">
<filter  id="AI_GaußscherWeichzeichner_1.5">
	<feGaussianBlur  stdDeviation="1.5"></feGaussianBlur>
</filter>
<g opacity="0.75" filter="url(#AI_GaußscherWeichzeichner_1.5)">
	<path d="M30.304,54.082c-17.042,0-21.031-1.403-21.031-8.747c0-7.64,4.725-18.309,11.875-18.309c5.347,0,4.349,9.562,9.156,9.562
		h0.031c4.808,0,3.81-9.562,9.156-9.562c7.15,0,11.875,10.669,11.875,18.309c0,7.344-3.99,8.747-21.031,8.747H30.304z"/>
	<circle cx="30.304" cy="15.057" r="8.969"/>
</g>
<g>
	<linearGradient id="SVGID_1_" gradientUnits="userSpaceOnUse" x1="28.7876" y1="52.7969" x2="28.7876" y2="25.7407">
		<stop  offset="0" style="stop-color:#CDCDCD"/>
		<stop  offset="1" style="stop-color:#F1F1F1"/>
	</linearGradient>
	<path fill="url(#SVGID_1_)" d="M28.771,52.797c-17.042,0-21.031-1.403-21.031-8.747c0-7.64,4.725-18.31,11.875-18.31
		c5.347,0,4.349,9.563,9.156,9.563h0.031c4.808,0,3.81-9.563,9.156-9.563c7.15,0,11.875,10.67,11.875,18.31
		c0,7.344-3.99,8.747-21.031,8.747H28.771z"/>
	<linearGradient id="SVGID_2_" gradientUnits="userSpaceOnUse" x1="28.772" y1="22.7402" x2="28.772" y2="4.8027">
		<stop  offset="0" style="stop-color:#CDCDCD"/>
		<stop  offset="1" style="stop-color:#F1F1F1"/>
	</linearGradient>
	<circle fill="url(#SVGID_2_)" cx="28.771" cy="13.771" r="8.969"/>
</g>
</svg>
